<svg width="760" height="102" viewBox="0 0 760 102" fill="none" xmlns="http://www.w3.org/2000/svg">
<path d="M0.320001 100V11.296H11.712C15.2107 17.696 18.1973 23.328 20.672 28.192C23.232 32.9707 25.536 37.408 27.584 41.504C29.632 45.5147 31.5947 49.568 33.472 53.664C35.3493 57.6747 37.2693 62.0693 39.232 66.848C41.28 71.6267 43.584 77.216 46.144 83.616V11.296H55.36V100H43.968C40.384 91.1253 37.056 83.232 33.984 76.32C30.912 69.3227 28.0107 62.9653 25.28 57.248C22.5493 51.4453 19.8613 46.0267 17.216 40.992C14.656 35.872 12.096 30.752 9.536 25.632V100H0.320001ZM107.657 101.536C104.244 101.536 100.83 101.237 97.417 100.64C94.089 100.128 91.017 99.104 88.201 97.568C85.4703 96.032 83.2517 93.8987 81.545 91.168C79.8383 88.352 78.985 84.768 78.985 80.416C78.985 75.3813 80.393 71.3707 83.209 68.384C86.025 65.3973 89.609 63.264 93.961 61.984C98.313 60.6187 102.793 59.936 107.401 59.936C109.876 59.936 112.265 60.1067 114.569 60.448C116.958 60.704 119.262 61.088 121.481 61.6V58.016C121.481 55.2 121.054 52.4693 120.201 49.824C119.433 47.1787 117.854 45.0027 115.465 43.296C113.161 41.5893 109.705 40.736 105.097 40.736C100.83 40.736 97.1183 41.0773 93.961 41.76C90.889 42.3573 88.6277 42.9547 87.177 43.552L86.025 34.976C87.4757 34.2933 90.0357 33.6533 93.705 33.056C97.3743 32.4587 101.385 32.16 105.737 32.16C112.222 32.16 117.342 33.2267 121.097 35.36C124.852 37.4933 127.54 40.4373 129.161 44.192C130.782 47.8613 131.593 52.128 131.593 56.992V98.976C128.692 99.488 125.065 100.043 120.713 100.64C116.361 101.237 112.009 101.536 107.657 101.536ZM106.889 92.832C110.132 92.832 112.99 92.704 115.465 92.448C118.025 92.192 120.03 91.8933 121.481 91.552V70.56C119.945 70.048 117.982 69.6213 115.593 69.28C113.289 68.8533 110.814 68.64 108.169 68.64C105.182 68.64 102.238 68.9813 99.337 69.664C96.4357 70.3467 94.0463 71.5413 92.169 73.248C90.2917 74.9547 89.353 77.344 89.353 80.416C89.353 85.1093 90.889 88.352 93.961 90.144C97.1183 91.936 101.428 92.832 106.889 92.832ZM195.794 101.536C188.882 101.536 183.719 100.427 180.306 98.208C176.893 95.904 174.631 92.704 173.522 88.608C172.413 84.512 171.858 79.7333 171.858 74.272V42.272H158.29V33.696H171.858V14.624L181.842 12.832V33.696H210.002V42.272H181.842V74.4C181.842 79.0933 182.311 82.7627 183.25 85.408C184.189 87.968 185.725 89.76 187.858 90.784C190.077 91.808 193.021 92.32 196.69 92.32C200.103 92.32 202.791 92.0213 204.754 91.424C206.802 90.7413 208.594 90.0587 210.13 89.376L211.666 97.824C210.983 98.1653 209.277 98.8907 206.546 100C203.815 101.024 200.231 101.536 195.794 101.536ZM274.971 101.536C269.51 101.536 265.243 100.555 262.171 98.592C259.184 96.6293 257.094 93.728 255.899 89.888C254.704 85.9627 254.107 81.0133 254.107 75.04V42.272H234.523V33.696H263.835V74.4C263.835 79.264 264.262 83.0187 265.115 85.664C266.054 88.224 267.376 89.9733 269.083 90.912C270.875 91.8507 272.966 92.32 275.355 92.32C278.427 92.32 281.115 91.936 283.419 91.168C285.808 90.4 287.472 89.76 288.411 89.248L289.819 97.952C289.648 98.1227 288.838 98.5067 287.387 99.104C286.022 99.7013 284.23 100.256 282.011 100.768C279.878 101.28 277.531 101.536 274.971 101.536ZM256.155 21.536C253.766 21.536 251.718 20.7253 250.011 19.104C248.304 17.3973 247.451 15.1787 247.451 12.448C247.451 9.632 248.304 7.41333 250.011 5.79199C251.718 4.17066 253.766 3.35999 256.155 3.35999C258.63 3.35999 260.678 4.17066 262.299 5.79199C263.92 7.41333 264.731 9.632 264.731 12.448C264.731 15.1787 263.92 17.3973 262.299 19.104C260.678 20.7253 258.63 21.536 256.155 21.536ZM339.684 101.408C334.052 101.408 329.017 100 324.58 97.184C320.228 94.2827 316.772 90.272 314.212 85.152C311.652 79.9467 310.372 73.8453 310.372 66.848C310.372 59.8507 311.609 53.792 314.084 48.672C316.644 43.4667 320.143 39.4133 324.58 36.512C329.017 33.6107 334.052 32.16 339.684 32.16C345.487 32.16 350.607 33.6107 355.044 36.512C359.567 39.4133 363.108 43.4667 365.668 48.672C368.228 53.792 369.508 59.8507 369.508 66.848C369.508 73.8453 368.228 79.9467 365.668 85.152C363.108 90.272 359.567 94.2827 355.044 97.184C350.607 100 345.487 101.408 339.684 101.408ZM339.812 92.192C343.652 92.192 347.023 91.2107 349.924 89.248C352.825 87.2 355.087 84.2987 356.708 80.544C358.329 76.704 359.14 72.1387 359.14 66.848C359.14 61.5573 358.329 56.992 356.708 53.152C355.087 49.312 352.783 46.368 349.796 44.32C346.895 42.272 343.524 41.248 339.684 41.248C335.929 41.248 332.601 42.272 329.7 44.32C326.884 46.368 324.665 49.312 323.044 53.152C321.508 56.992 320.74 61.5573 320.74 66.848C320.74 72.1387 321.551 76.704 323.172 80.544C324.793 84.2987 327.055 87.2 329.956 89.248C332.857 91.2107 336.143 92.192 339.812 92.192ZM392.749 100V35.488C397.272 34.2933 401.624 33.4827 405.805 33.056C409.986 32.544 413.656 32.288 416.813 32.288C422.36 32.288 427.138 33.2267 431.149 35.104C435.16 36.896 438.232 39.8827 440.365 44.064C442.584 48.16 443.693 53.7067 443.693 60.704V100H433.709V62.752C433.709 56.608 432.941 52.0427 431.405 49.056C429.869 45.984 427.778 43.936 425.133 42.912C422.573 41.888 419.672 41.376 416.429 41.376C414.296 41.376 412.034 41.504 409.645 41.76C407.256 42.016 404.952 42.3573 402.733 42.784V100H392.749ZM474.486 100V91.424H490.998V19.872H474.486V11.296H517.494V19.872H500.982V91.424H517.494V100H474.486ZM548.799 100V35.488C553.322 34.2933 557.674 33.4827 561.855 33.056C566.036 32.544 569.706 32.288 572.863 32.288C578.41 32.288 583.188 33.2267 587.199 35.104C591.21 36.896 594.282 39.8827 596.415 44.064C598.634 48.16 599.743 53.7067 599.743 60.704V100H589.759V62.752C589.759 56.608 588.991 52.0427 587.455 49.056C585.919 45.984 583.828 43.936 581.183 42.912C578.623 41.888 575.722 41.376 572.479 41.376C570.346 41.376 568.084 41.504 565.695 41.76C563.306 42.016 561.002 42.3573 558.783 42.784V100H548.799ZM640.136 100V42.272H626.44V33.696H640.136V27.04C640.136 20.2987 641.288 15.0507 643.592 11.296C645.981 7.456 649.096 4.72533 652.936 3.104C656.776 1.48266 660.872 0.671997 665.224 0.671997C668.637 0.671997 672.008 1.056 675.336 1.824C678.749 2.592 681.949 3.44533 684.936 4.384L683.016 13.344C680.968 12.1493 678.365 11.2107 675.208 10.528C672.051 9.76 668.808 9.376 665.48 9.376C662.749 9.376 660.189 9.93066 657.8 11.04C655.496 12.064 653.619 13.856 652.168 16.416C650.803 18.976 650.12 22.5173 650.12 27.04V33.696H676.744V42.272H650.12V100H640.136ZM729.809 101.408C724.177 101.408 719.142 100 714.705 97.184C710.353 94.2827 706.897 90.272 704.337 85.152C701.777 79.9467 700.497 73.8453 700.497 66.848C700.497 59.8507 701.734 53.792 704.209 48.672C706.769 43.4667 710.268 39.4133 714.705 36.512C719.142 33.6107 724.177 32.16 729.809 32.16C735.612 32.16 740.732 33.6107 745.169 36.512C749.692 39.4133 753.233 43.4667 755.793 48.672C758.353 53.792 759.633 59.8507 759.633 66.848C759.633 73.8453 758.353 79.9467 755.793 85.152C753.233 90.272 749.692 94.2827 745.169 97.184C740.732 100 735.612 101.408 729.809 101.408ZM729.937 92.192C733.777 92.192 737.148 91.2107 740.049 89.248C742.95 87.2 745.212 84.2987 746.833 80.544C748.454 76.704 749.265 72.1387 749.265 66.848C749.265 61.5573 748.454 56.992 746.833 53.152C745.212 49.312 742.908 46.368 739.921 44.32C737.02 42.272 733.649 41.248 729.809 41.248C726.054 41.248 722.726 42.272 719.825 44.32C717.009 46.368 714.79 49.312 713.169 53.152C711.633 56.992 710.865 61.5573 710.865 66.848C710.865 72.1387 711.676 76.704 713.297 80.544C714.918 84.2987 717.18 87.2 720.081 89.248C722.982 91.2107 726.268 92.192 729.937 92.192Z" fill="url(#paint0_linear_1_467)"/>
<defs>
<linearGradient id="paint0_linear_1_467" x1="379" y1="-40" x2="379" y2="152" gradientUnits="userSpaceOnUse">
<stop/>
<stop offset="1" stop-color="#B7B7B7"/>
</linearGradient>
</defs>
</svg>
